<mxfile host="Electron" modified="2025-10-03T15:34:20.237Z" agent="Mozilla/5.0 (X11; Linux x86_64) AppleWebKit/537.36 (KHTML, like Gecko) draw.io/23.1.5 Chrome/120.0.6099.109 Electron/28.1.0 Safari/537.36" etag="GRMOpRuiFd3e2Mq3Cf7D" version="23.1.5" type="device">
  <diagram name="Страница — 1" id="OUudB_qsvCB226KxlGIW">
    <mxGraphModel dx="817" dy="1061" grid="1" gridSize="10" guides="1" tooltips="1" connect="1" arrows="1" fold="1" page="1" pageScale="1" pageWidth="827" pageHeight="1169" math="0" shadow="0">
      <root>
        <mxCell id="0" />
        <mxCell id="1" parent="0" />
        <mxCell id="lojdyQg56bxN2ZcsIYBC-1" value="" style="whiteSpace=wrap;html=1;align=center;dashed=1;fillStyle=auto;" parent="1" vertex="1">
          <mxGeometry x="40" y="40" width="420" height="220" as="geometry" />
        </mxCell>
        <mxCell id="lojdyQg56bxN2ZcsIYBC-2" value="Listening server klishd" style="text;html=1;align=center;verticalAlign=middle;whiteSpace=wrap;rounded=0;" parent="1" vertex="1">
          <mxGeometry x="40" y="40" width="160" height="30" as="geometry" />
        </mxCell>
        <mxCell id="lojdyQg56bxN2ZcsIYBC-4" value="The kscheme.&amp;nbsp;&lt;br&gt;Internal representation of command configuration" style="whiteSpace=wrap;html=1;align=center;" parent="1" vertex="1">
          <mxGeometry x="60" y="80" width="100" height="160" as="geometry" />
        </mxCell>
        <mxCell id="lojdyQg56bxN2ZcsIYBC-5" value="Промежуточное представление конфигурации команд ischeme" style="whiteSpace=wrap;html=1;align=center;" parent="1" vertex="1">
          <mxGeometry x="200" y="80" width="100" height="160" as="geometry" />
        </mxCell>
        <mxCell id="lojdyQg56bxN2ZcsIYBC-6" value="&amp;nbsp;libxml2&lt;br&gt;database plugin" style="whiteSpace=wrap;html=1;align=center;" parent="1" vertex="1">
          <mxGeometry x="340" y="80" width="100" height="40" as="geometry" />
        </mxCell>
        <mxCell id="lojdyQg56bxN2ZcsIYBC-7" value="libexpat&lt;br&gt;database plugin" style="whiteSpace=wrap;html=1;align=center;" parent="1" vertex="1">
          <mxGeometry x="340" y="140.5" width="100" height="39" as="geometry" />
        </mxCell>
        <mxCell id="lojdyQg56bxN2ZcsIYBC-8" value="libroxml&lt;br&gt;database plugin" style="whiteSpace=wrap;html=1;align=center;" parent="1" vertex="1">
          <mxGeometry x="340" y="200" width="100" height="40" as="geometry" />
        </mxCell>
        <mxCell id="lojdyQg56bxN2ZcsIYBC-10" value="" style="whiteSpace=wrap;html=1;align=center;dashed=1;fillStyle=auto;" parent="1" vertex="1">
          <mxGeometry x="520" y="40" width="160" height="220" as="geometry" />
        </mxCell>
        <mxCell id="lojdyQg56bxN2ZcsIYBC-11" value="XML commands configuration" style="text;html=1;align=center;verticalAlign=middle;whiteSpace=wrap;rounded=0;" parent="1" vertex="1">
          <mxGeometry x="520" y="40" width="160" height="30" as="geometry" />
        </mxCell>
        <mxCell id="lojdyQg56bxN2ZcsIYBC-12" value="XML config file 1" style="whiteSpace=wrap;html=1;align=center;" parent="1" vertex="1">
          <mxGeometry x="550" y="80" width="100" height="40" as="geometry" />
        </mxCell>
        <mxCell id="lojdyQg56bxN2ZcsIYBC-13" value="&lt;font style=&quot;font-size: 32px;&quot;&gt;...&lt;/font&gt;" style="whiteSpace=wrap;html=1;align=center;strokeColor=none;" parent="1" vertex="1">
          <mxGeometry x="550" y="130" width="100" height="40" as="geometry" />
        </mxCell>
        <mxCell id="lojdyQg56bxN2ZcsIYBC-14" value="XML config file N" style="whiteSpace=wrap;html=1;align=center;" parent="1" vertex="1">
          <mxGeometry x="550" y="200" width="100" height="40" as="geometry" />
        </mxCell>
        <mxCell id="lojdyQg56bxN2ZcsIYBC-15" value="" style="endArrow=classic;html=1;rounded=0;entryX=1;entryY=0.5;entryDx=0;entryDy=0;" parent="1" target="lojdyQg56bxN2ZcsIYBC-6" edge="1">
          <mxGeometry width="50" height="50" relative="1" as="geometry">
            <mxPoint x="520" y="100" as="sourcePoint" />
            <mxPoint x="440" y="170" as="targetPoint" />
          </mxGeometry>
        </mxCell>
        <mxCell id="lojdyQg56bxN2ZcsIYBC-16" value="" style="endArrow=classic;html=1;rounded=0;entryX=1;entryY=0.5;entryDx=0;entryDy=0;" parent="1" edge="1">
          <mxGeometry width="50" height="50" relative="1" as="geometry">
            <mxPoint x="520" y="159.88" as="sourcePoint" />
            <mxPoint x="440" y="159.88" as="targetPoint" />
          </mxGeometry>
        </mxCell>
        <mxCell id="lojdyQg56bxN2ZcsIYBC-17" value="" style="endArrow=classic;html=1;rounded=0;entryX=1;entryY=0.5;entryDx=0;entryDy=0;" parent="1" edge="1">
          <mxGeometry width="50" height="50" relative="1" as="geometry">
            <mxPoint x="520" y="219.88" as="sourcePoint" />
            <mxPoint x="440" y="219.88" as="targetPoint" />
          </mxGeometry>
        </mxCell>
        <mxCell id="lojdyQg56bxN2ZcsIYBC-18" value="" style="endArrow=classic;html=1;rounded=0;entryX=1;entryY=0.5;entryDx=0;entryDy=0;" parent="1" edge="1">
          <mxGeometry width="50" height="50" relative="1" as="geometry">
            <mxPoint x="340" y="160" as="sourcePoint" />
            <mxPoint x="300" y="159.88" as="targetPoint" />
          </mxGeometry>
        </mxCell>
        <mxCell id="lojdyQg56bxN2ZcsIYBC-19" value="" style="endArrow=classic;html=1;rounded=0;entryX=1;entryY=0.5;entryDx=0;entryDy=0;" parent="1" edge="1">
          <mxGeometry width="50" height="50" relative="1" as="geometry">
            <mxPoint x="340" y="220" as="sourcePoint" />
            <mxPoint x="300" y="219.88" as="targetPoint" />
          </mxGeometry>
        </mxCell>
        <mxCell id="lojdyQg56bxN2ZcsIYBC-20" value="" style="endArrow=classic;html=1;rounded=0;entryX=1;entryY=0.5;entryDx=0;entryDy=0;" parent="1" edge="1">
          <mxGeometry width="50" height="50" relative="1" as="geometry">
            <mxPoint x="340" y="100" as="sourcePoint" />
            <mxPoint x="300" y="99.88" as="targetPoint" />
          </mxGeometry>
        </mxCell>
        <mxCell id="lojdyQg56bxN2ZcsIYBC-21" value="" style="endArrow=classic;html=1;rounded=0;entryX=1;entryY=0.5;entryDx=0;entryDy=0;" parent="1" edge="1">
          <mxGeometry width="50" height="50" relative="1" as="geometry">
            <mxPoint x="200" y="160" as="sourcePoint" />
            <mxPoint x="160" y="159.88" as="targetPoint" />
          </mxGeometry>
        </mxCell>
      </root>
    </mxGraphModel>
  </diagram>
</mxfile>
